<mxfile host="app.diagrams.net" agent="Mozilla/5.0 (Macintosh; Intel Mac OS X 10_15_7) AppleWebKit/537.36 (KHTML, like Gecko) Chrome/137.0.0.0 Safari/537.36 Edg/137.0.0.0" version="28.1.0">
  <diagram name="第 1 页" id="1k5e5weYgJaqIK4azuRX">
    <mxGraphModel dx="994" dy="561" grid="1" gridSize="10" guides="1" tooltips="1" connect="1" arrows="1" fold="1" page="1" pageScale="1" pageWidth="1169" pageHeight="827" math="0" shadow="0">
      <root>
        <mxCell id="0" />
        <mxCell id="1" parent="0" />
        <mxCell id="mfwusdP7LPrRbJQmFQ5J-1" value="" style="rounded=0;whiteSpace=wrap;html=1;" vertex="1" parent="1">
          <mxGeometry x="690" y="120" width="680" height="100" as="geometry" />
        </mxCell>
        <mxCell id="mfwusdP7LPrRbJQmFQ5J-2" style="rounded=0;orthogonalLoop=1;jettySize=auto;html=1;exitX=0.5;exitY=1;exitDx=0;exitDy=0;entryX=0.5;entryY=0;entryDx=0;entryDy=0;" edge="1" parent="1" source="mfwusdP7LPrRbJQmFQ5J-3" target="mfwusdP7LPrRbJQmFQ5J-12">
          <mxGeometry relative="1" as="geometry" />
        </mxCell>
        <mxCell id="mfwusdP7LPrRbJQmFQ5J-3" value="小于003索引&lt;div&gt;的数据&lt;span style=&quot;background-color: transparent; color: light-dark(rgb(0, 0, 0), rgb(255, 255, 255));&quot;&gt;磁盘地址&lt;/span&gt;&lt;/div&gt;" style="rounded=1;whiteSpace=wrap;html=1;" vertex="1" parent="1">
          <mxGeometry x="730" y="140" width="120" height="60" as="geometry" />
        </mxCell>
        <mxCell id="mfwusdP7LPrRbJQmFQ5J-4" value="&lt;b&gt;&lt;font style=&quot;font-size: 18px;&quot;&gt;003&lt;/font&gt;&lt;/b&gt;&lt;div&gt;（冗余的索引）&lt;/div&gt;" style="rounded=1;whiteSpace=wrap;html=1;" vertex="1" parent="1">
          <mxGeometry x="850" y="140" width="120" height="60" as="geometry" />
        </mxCell>
        <mxCell id="mfwusdP7LPrRbJQmFQ5J-5" value="&lt;b&gt;&lt;font style=&quot;font-size: 18px;&quot;&gt;005&lt;/font&gt;&lt;/b&gt;&lt;div&gt;（&lt;span style=&quot;background-color: transparent; color: light-dark(rgb(0, 0, 0), rgb(255, 255, 255));&quot;&gt;冗余的索引&lt;/span&gt;&lt;span style=&quot;background-color: transparent; color: light-dark(rgb(0, 0, 0), rgb(255, 255, 255));&quot;&gt;）&lt;/span&gt;&lt;/div&gt;" style="rounded=1;whiteSpace=wrap;html=1;" vertex="1" parent="1">
          <mxGeometry x="1090" y="140" width="120" height="60" as="geometry" />
        </mxCell>
        <mxCell id="mfwusdP7LPrRbJQmFQ5J-6" style="rounded=0;orthogonalLoop=1;jettySize=auto;html=1;exitX=0.5;exitY=1;exitDx=0;exitDy=0;entryX=0.5;entryY=0;entryDx=0;entryDy=0;" edge="1" parent="1" source="mfwusdP7LPrRbJQmFQ5J-7" target="mfwusdP7LPrRbJQmFQ5J-17">
          <mxGeometry relative="1" as="geometry" />
        </mxCell>
        <mxCell id="mfwusdP7LPrRbJQmFQ5J-7" value="大于等于005索引&lt;div&gt;的数据磁盘地址&lt;/div&gt;" style="rounded=1;whiteSpace=wrap;html=1;" vertex="1" parent="1">
          <mxGeometry x="1210" y="140" width="120" height="60" as="geometry" />
        </mxCell>
        <mxCell id="mfwusdP7LPrRbJQmFQ5J-8" style="edgeStyle=orthogonalEdgeStyle;rounded=0;orthogonalLoop=1;jettySize=auto;html=1;exitX=0.5;exitY=1;exitDx=0;exitDy=0;entryX=0.5;entryY=0;entryDx=0;entryDy=0;" edge="1" parent="1" source="mfwusdP7LPrRbJQmFQ5J-9" target="mfwusdP7LPrRbJQmFQ5J-22">
          <mxGeometry relative="1" as="geometry" />
        </mxCell>
        <mxCell id="mfwusdP7LPrRbJQmFQ5J-9" value="&lt;div&gt;小于005&lt;span style=&quot;background-color: transparent; color: light-dark(rgb(0, 0, 0), rgb(255, 255, 255));&quot;&gt;索引&lt;/span&gt;&lt;/div&gt;&lt;div&gt;大于等于003索引&lt;/div&gt;&lt;div&gt;&lt;span style=&quot;background-color: transparent; color: light-dark(rgb(0, 0, 0), rgb(255, 255, 255));&quot;&gt;的&lt;/span&gt;数据&lt;span style=&quot;background-color: transparent; color: light-dark(rgb(0, 0, 0), rgb(255, 255, 255));&quot;&gt;磁盘地址&lt;/span&gt;&lt;/div&gt;" style="rounded=1;whiteSpace=wrap;html=1;" vertex="1" parent="1">
          <mxGeometry x="970" y="140" width="120" height="60" as="geometry" />
        </mxCell>
        <mxCell id="mfwusdP7LPrRbJQmFQ5J-10" value="" style="shape=curlyBracket;whiteSpace=wrap;html=1;rounded=1;flipH=1;labelPosition=right;verticalLabelPosition=middle;align=left;verticalAlign=middle;direction=south;" vertex="1" parent="1">
          <mxGeometry x="690" y="90" width="680" height="20" as="geometry" />
        </mxCell>
        <mxCell id="mfwusdP7LPrRbJQmFQ5J-11" value="索引页" style="text;strokeColor=none;fillColor=none;html=1;fontSize=24;fontStyle=1;verticalAlign=middle;align=center;" vertex="1" parent="1">
          <mxGeometry x="980" y="50" width="100" height="40" as="geometry" />
        </mxCell>
        <mxCell id="mfwusdP7LPrRbJQmFQ5J-12" value="" style="rounded=0;whiteSpace=wrap;html=1;" vertex="1" parent="1">
          <mxGeometry x="410" y="360" width="320" height="160" as="geometry" />
        </mxCell>
        <mxCell id="mfwusdP7LPrRbJQmFQ5J-13" value="001" style="rounded=1;whiteSpace=wrap;html=1;fontStyle=1;fontSize=18;" vertex="1" parent="1">
          <mxGeometry x="450" y="380" width="120" height="60" as="geometry" />
        </mxCell>
        <mxCell id="mfwusdP7LPrRbJQmFQ5J-14" value="002" style="rounded=1;whiteSpace=wrap;html=1;fontStyle=1;fontSize=18;" vertex="1" parent="1">
          <mxGeometry x="570" y="380" width="120" height="60" as="geometry" />
        </mxCell>
        <mxCell id="mfwusdP7LPrRbJQmFQ5J-15" value="001记录主键Id" style="rounded=1;whiteSpace=wrap;html=1;" vertex="1" parent="1">
          <mxGeometry x="450" y="440" width="120" height="60" as="geometry" />
        </mxCell>
        <mxCell id="mfwusdP7LPrRbJQmFQ5J-16" value="002记录主键Id" style="rounded=1;whiteSpace=wrap;html=1;" vertex="1" parent="1">
          <mxGeometry x="570" y="440" width="120" height="60" as="geometry" />
        </mxCell>
        <mxCell id="mfwusdP7LPrRbJQmFQ5J-17" value="" style="rounded=0;whiteSpace=wrap;html=1;" vertex="1" parent="1">
          <mxGeometry x="1330" y="360" width="320" height="160" as="geometry" />
        </mxCell>
        <mxCell id="mfwusdP7LPrRbJQmFQ5J-18" value="005" style="rounded=1;whiteSpace=wrap;html=1;fontStyle=1;fontSize=18;" vertex="1" parent="1">
          <mxGeometry x="1370" y="380" width="120" height="60" as="geometry" />
        </mxCell>
        <mxCell id="mfwusdP7LPrRbJQmFQ5J-19" value="006" style="rounded=1;whiteSpace=wrap;html=1;fontStyle=1;fontSize=18;" vertex="1" parent="1">
          <mxGeometry x="1490" y="380" width="120" height="60" as="geometry" />
        </mxCell>
        <mxCell id="mfwusdP7LPrRbJQmFQ5J-20" value="005记录主键Id" style="rounded=1;whiteSpace=wrap;html=1;" vertex="1" parent="1">
          <mxGeometry x="1370" y="440" width="120" height="60" as="geometry" />
        </mxCell>
        <mxCell id="mfwusdP7LPrRbJQmFQ5J-21" value="006记录主键Id" style="rounded=1;whiteSpace=wrap;html=1;" vertex="1" parent="1">
          <mxGeometry x="1490" y="440" width="120" height="60" as="geometry" />
        </mxCell>
        <mxCell id="mfwusdP7LPrRbJQmFQ5J-22" value="" style="rounded=0;whiteSpace=wrap;html=1;" vertex="1" parent="1">
          <mxGeometry x="870" y="360" width="320" height="160" as="geometry" />
        </mxCell>
        <mxCell id="mfwusdP7LPrRbJQmFQ5J-23" value="003" style="rounded=1;whiteSpace=wrap;html=1;fontStyle=1;fontSize=18;" vertex="1" parent="1">
          <mxGeometry x="910" y="380" width="120" height="60" as="geometry" />
        </mxCell>
        <mxCell id="mfwusdP7LPrRbJQmFQ5J-24" value="004" style="rounded=1;whiteSpace=wrap;html=1;fontStyle=1;fontSize=18;" vertex="1" parent="1">
          <mxGeometry x="1030" y="380" width="120" height="60" as="geometry" />
        </mxCell>
        <mxCell id="mfwusdP7LPrRbJQmFQ5J-25" value="003记录主键Id" style="rounded=1;whiteSpace=wrap;html=1;" vertex="1" parent="1">
          <mxGeometry x="910" y="440" width="120" height="60" as="geometry" />
        </mxCell>
        <mxCell id="mfwusdP7LPrRbJQmFQ5J-26" value="004记录主键Id" style="rounded=1;whiteSpace=wrap;html=1;" vertex="1" parent="1">
          <mxGeometry x="1030" y="440" width="120" height="60" as="geometry" />
        </mxCell>
        <mxCell id="mfwusdP7LPrRbJQmFQ5J-27" value="" style="endArrow=classic;startArrow=classic;html=1;rounded=0;entryX=0;entryY=0.5;entryDx=0;entryDy=0;exitX=1;exitY=0.5;exitDx=0;exitDy=0;" edge="1" parent="1" source="mfwusdP7LPrRbJQmFQ5J-12" target="mfwusdP7LPrRbJQmFQ5J-22">
          <mxGeometry width="50" height="50" relative="1" as="geometry">
            <mxPoint x="765" y="450" as="sourcePoint" />
            <mxPoint x="815" y="400" as="targetPoint" />
          </mxGeometry>
        </mxCell>
        <mxCell id="mfwusdP7LPrRbJQmFQ5J-28" value="" style="endArrow=classic;startArrow=classic;html=1;rounded=0;entryX=0;entryY=0.5;entryDx=0;entryDy=0;exitX=1;exitY=0.5;exitDx=0;exitDy=0;" edge="1" parent="1" source="mfwusdP7LPrRbJQmFQ5J-22" target="mfwusdP7LPrRbJQmFQ5J-17">
          <mxGeometry width="50" height="50" relative="1" as="geometry">
            <mxPoint x="1230" y="430" as="sourcePoint" />
            <mxPoint x="950" y="430" as="targetPoint" />
          </mxGeometry>
        </mxCell>
        <mxCell id="mfwusdP7LPrRbJQmFQ5J-29" value="" style="shape=curlyBracket;whiteSpace=wrap;html=1;rounded=1;flipH=1;labelPosition=right;verticalLabelPosition=middle;align=left;verticalAlign=middle;direction=north;" vertex="1" parent="1">
          <mxGeometry x="410" y="530" width="320" height="20" as="geometry" />
        </mxCell>
        <mxCell id="mfwusdP7LPrRbJQmFQ5J-30" value="数据页" style="text;strokeColor=none;fillColor=none;html=1;fontSize=24;fontStyle=1;verticalAlign=middle;align=center;" vertex="1" parent="1">
          <mxGeometry x="520" y="550" width="100" height="40" as="geometry" />
        </mxCell>
        <mxCell id="mfwusdP7LPrRbJQmFQ5J-31" value="" style="shape=curlyBracket;whiteSpace=wrap;html=1;rounded=1;flipH=1;labelPosition=right;verticalLabelPosition=middle;align=left;verticalAlign=middle;direction=north;" vertex="1" parent="1">
          <mxGeometry x="870" y="530" width="320" height="20" as="geometry" />
        </mxCell>
        <mxCell id="mfwusdP7LPrRbJQmFQ5J-32" value="数据页" style="text;strokeColor=none;fillColor=none;html=1;fontSize=24;fontStyle=1;verticalAlign=middle;align=center;" vertex="1" parent="1">
          <mxGeometry x="980" y="550" width="100" height="40" as="geometry" />
        </mxCell>
        <mxCell id="mfwusdP7LPrRbJQmFQ5J-33" value="" style="shape=curlyBracket;whiteSpace=wrap;html=1;rounded=1;flipH=1;labelPosition=right;verticalLabelPosition=middle;align=left;verticalAlign=middle;direction=north;" vertex="1" parent="1">
          <mxGeometry x="1330" y="530" width="320" height="20" as="geometry" />
        </mxCell>
        <mxCell id="mfwusdP7LPrRbJQmFQ5J-34" value="数据页" style="text;strokeColor=none;fillColor=none;html=1;fontSize=24;fontStyle=1;verticalAlign=middle;align=center;" vertex="1" parent="1">
          <mxGeometry x="1440" y="550" width="100" height="40" as="geometry" />
        </mxCell>
        <mxCell id="mfwusdP7LPrRbJQmFQ5J-35" value="互相指向对方的地址" style="text;html=1;align=center;verticalAlign=middle;whiteSpace=wrap;rounded=0;" vertex="1" parent="1">
          <mxGeometry x="740" y="410" width="110" height="30" as="geometry" />
        </mxCell>
        <mxCell id="mfwusdP7LPrRbJQmFQ5J-36" value="互相指向对方的地址" style="text;html=1;align=center;verticalAlign=middle;whiteSpace=wrap;rounded=0;" vertex="1" parent="1">
          <mxGeometry x="1200" y="410" width="110" height="30" as="geometry" />
        </mxCell>
      </root>
    </mxGraphModel>
  </diagram>
</mxfile>
